<?xml version="1.0" encoding="UTF-8" standalone="no"?>
<svg
   viewBox="0 0 200 300"
   version="1.1"
   id="svg3"
   xml:space="preserve"
   xmlns:xlink="http://www.w3.org/1999/xlink"
   xmlns="http://www.w3.org/2000/svg"
   xmlns:svg="http://www.w3.org/2000/svg"><defs
     id="defs3"><linearGradient
       id="linearGradient13"><stop
         style="stop-color:#1a1a1a;stop-opacity:1;"
         offset="0"
         id="stop13" /><stop
         style="stop-color:#1a1a1a;stop-opacity:1"
         offset="0.45704123"
         id="stop15" /><stop
         style="stop-color:#1a1a1a;stop-opacity:0;"
         offset="1"
         id="stop14" /></linearGradient><radialGradient
       xlink:href="#linearGradient13"
       id="radialGradient14"
       cx="100.20563"
       cy="175.94064"
       fx="100.20563"
       fy="175.94064"
       r="12.92693"
       gradientTransform="matrix(-1.2083189,-0.12506774,-0.06228934,-1.3489091,232.1037,427.80866)"
       gradientUnits="userSpaceOnUse" /><radialGradient
       xlink:href="#linearGradient13"
       id="radialGradient15"
       gradientUnits="userSpaceOnUse"
       gradientTransform="matrix(-0.87106107,-0.05935867,-0.04490356,-0.64020865,195.33491,304.36319)"
       cx="100.20563"
       cy="175.94064"
       fx="100.20563"
       fy="175.94064"
       r="12.92693" /><radialGradient
       xlink:href="#linearGradient13"
       id="radialGradient16"
       gradientUnits="userSpaceOnUse"
       gradientTransform="matrix(-1.6255159,-0.06694846,-0.08379601,-0.72206774,276.88147,310.63935)"
       cx="100.20563"
       cy="175.94064"
       fx="100.20563"
       fy="175.94064"
       r="12.92693" /></defs><ellipse
     style="fill:#666666;fill-opacity:1;stroke:none;stroke-width:0.840843;stroke-opacity:1;-inkscape-stroke:none;paint-order:stroke fill markers"
     id="ellipse19"
     cx="-22.508675"
     cy="253.82187"
     rx="36.610954"
     ry="6.5186968"
     transform="matrix(0.80537159,-0.59277027,0.37480083,0.92710535,0,0)" /><ellipse
     style="fill:#666666;fill-opacity:1;stroke:none;stroke-width:0.921967;stroke-opacity:1;-inkscape-stroke:none;paint-order:stroke fill markers"
     id="ellipse18"
     cx="-195.88037"
     cy="157.72945"
     rx="39.25367"
     ry="7.3095756"
     transform="matrix(-0.85310349,-0.52174173,-0.25018191,0.96819885,0,0)" /><ellipse
     style="fill:#666666;fill-opacity:1;stroke:none;stroke-width:0.754136;stroke-opacity:1;-inkscape-stroke:none;paint-order:stroke fill markers"
     id="ellipse17"
     cx="-133.92291"
     cy="217.46205"
     rx="35.095795"
     ry="5.4699922"
     transform="matrix(-0.99282789,-0.11955245,0,1,0,0)" /><ellipse
     style="fill:#666666;fill-opacity:1;stroke:none;stroke-width:0.754136;stroke-opacity:1;-inkscape-stroke:none;paint-order:stroke fill markers"
     id="path17"
     cx="78.471191"
     cy="243.70671"
     rx="35.095795"
     ry="5.4699922"
     transform="matrix(0.99282789,-0.11955245,0,1,0,0)" /><g
     id="g12"
     transform="matrix(-0.64717829,0.07682006,0.05317104,0.93502538,127.60156,13.624609)"><rect
       style="fill:#8b4513;fill-opacity:1;stroke-width:1px;-inkscape-stroke:none;paint-order:stroke fill markers"
       id="rect10"
       width="91.187721"
       height="20.837479"
       x="56.561882"
       y="207.68861" /><ellipse
       style="fill:#dfb04c;fill-opacity:1;stroke-width:1px;-inkscape-stroke:none;paint-order:stroke fill markers"
       id="ellipse11"
       cx="147.74277"
       cy="218.10736"
       rx="5.6562819"
       ry="10.418739" /><path
       style="fill:none;fill-rule:evenodd;stroke:#8b4513;stroke-width:0.5;stroke-opacity:1"
       id="path11"
       d="m 144.85759,213.97467 c 0.0213,0.019 -0.0327,0.0461 -0.0427,0.0479 -0.11488,0.0205 -0.16283,-0.13278 -0.14878,-0.21884 0.0423,-0.25931 0.36207,-0.33266 0.57618,-0.25995 0.45214,0.15354 0.55812,0.71964 0.38141,1.11474 -0.31115,0.69569 -1.20592,0.83994 -1.83456,0.51316 -0.99079,-0.51505 -1.17837,-1.82104 -0.65517,-2.73561 0.76531,-1.33777 2.56508,-1.57354 3.81789,-0.80747 1.73676,1.06198 2.02548,3.43809 0.97005,5.08142 -1.40513,2.18782 -4.44011,2.53421 -6.52618,1.1429 -2.69099,-1.79476 -3.09977,-5.57115 -1.32604,-8.15218 2.23091,-3.24629 6.83122,-3.72216 9.95942,-1.51946 3.85372,2.71358 4.40138,8.22034 1.72315,11.9479"
       transform="matrix(-0.525912,0,0,1.0092843,224.71515,2.2012324)" /><ellipse
       style="fill:#8b4513;fill-opacity:1;stroke-width:1px;-inkscape-stroke:none;paint-order:stroke fill markers"
       id="ellipse12"
       cx="56.561882"
       cy="218.10736"
       rx="5.6562819"
       ry="10.418739" /></g><g
     id="g10"
     transform="matrix(-0.67416055,0.46762281,0.5089029,0.61947545,33.134588,59.405653)"><rect
       style="fill:#8b4513;fill-opacity:1;stroke-width:1px;-inkscape-stroke:none;paint-order:stroke fill markers"
       id="rect8"
       width="91.187721"
       height="20.837479"
       x="56.561882"
       y="207.68861" /><ellipse
       style="fill:#dfb04c;fill-opacity:1;stroke-width:1px;-inkscape-stroke:none;paint-order:stroke fill markers"
       id="ellipse9"
       cx="147.74277"
       cy="218.10736"
       rx="5.6562819"
       ry="10.418739" /><path
       style="fill:none;fill-rule:evenodd;stroke:#8b4513;stroke-width:0.5;stroke-opacity:1"
       id="path9"
       d="m 144.85759,213.97467 c 0.0213,0.019 -0.0327,0.0461 -0.0427,0.0479 -0.11488,0.0205 -0.16283,-0.13278 -0.14878,-0.21884 0.0423,-0.25931 0.36207,-0.33266 0.57618,-0.25995 0.45214,0.15354 0.55812,0.71964 0.38141,1.11474 -0.31115,0.69569 -1.20592,0.83994 -1.83456,0.51316 -0.99079,-0.51505 -1.17837,-1.82104 -0.65517,-2.73561 0.76531,-1.33777 2.56508,-1.57354 3.81789,-0.80747 1.73676,1.06198 2.02548,3.43809 0.97005,5.08142 -1.40513,2.18782 -4.44011,2.53421 -6.52618,1.1429 -2.69099,-1.79476 -3.09977,-5.57115 -1.32604,-8.15218 2.23091,-3.24629 6.83122,-3.72216 9.95942,-1.51946 3.85372,2.71358 4.40138,8.22034 1.72315,11.9479"
       transform="matrix(-0.525912,0,0,1.0092843,224.71515,2.2012324)" /><ellipse
       style="fill:#8b4513;fill-opacity:1;stroke-width:1px;-inkscape-stroke:none;paint-order:stroke fill markers"
       id="ellipse10"
       cx="56.561882"
       cy="218.10736"
       rx="5.6562819"
       ry="10.418739" /></g><g
     id="g8"
     transform="matrix(0.84425786,0.07682006,-0.06936276,0.93502538,59.6582,13.735734)"><rect
       style="fill:#8b4513;fill-opacity:1;stroke-width:1px;-inkscape-stroke:none;paint-order:stroke fill markers"
       id="rect6"
       width="91.187721"
       height="20.837479"
       x="56.561882"
       y="207.68861" /><ellipse
       style="fill:#dfb04c;fill-opacity:1;stroke-width:1px;-inkscape-stroke:none;paint-order:stroke fill markers"
       id="ellipse7"
       cx="147.74277"
       cy="218.10736"
       rx="5.6562819"
       ry="10.418739" /><path
       style="fill:none;fill-rule:evenodd;stroke:#8b4513;stroke-width:0.5;stroke-opacity:1"
       id="path7"
       d="m 144.85759,213.97467 c 0.0213,0.019 -0.0327,0.0461 -0.0427,0.0479 -0.11488,0.0205 -0.16283,-0.13278 -0.14878,-0.21884 0.0423,-0.25931 0.36207,-0.33266 0.57618,-0.25995 0.45214,0.15354 0.55812,0.71964 0.38141,1.11474 -0.31115,0.69569 -1.20592,0.83994 -1.83456,0.51316 -0.99079,-0.51505 -1.17837,-1.82104 -0.65517,-2.73561 0.76531,-1.33777 2.56508,-1.57354 3.81789,-0.80747 1.73676,1.06198 2.02548,3.43809 0.97005,5.08142 -1.40513,2.18782 -4.44011,2.53421 -6.52618,1.1429 -2.69099,-1.79476 -3.09977,-5.57115 -1.32604,-8.15218 2.23091,-3.24629 6.83122,-3.72216 9.95942,-1.51946 3.85372,2.71358 4.40138,8.22034 1.72315,11.9479"
       transform="matrix(-0.525912,0,0,1.0092843,224.71515,2.2012324)" /><ellipse
       style="fill:#8b4513;fill-opacity:1;stroke-width:1px;-inkscape-stroke:none;paint-order:stroke fill markers"
       id="ellipse8"
       cx="56.561882"
       cy="218.10736"
       rx="5.6562819"
       ry="10.418739" /></g><g
     id="g4"
     transform="matrix(0.81248405,0.46908788,-0.46908788,0.81248405,146.82409,20.76332)"><rect
       style="fill:#8b4513;fill-opacity:1;stroke-width:1px;-inkscape-stroke:none;paint-order:stroke fill markers"
       id="rect3"
       width="91.187721"
       height="20.837479"
       x="56.561882"
       y="207.68861" /><ellipse
       style="fill:#dfb04c;fill-opacity:1;stroke-width:1px;-inkscape-stroke:none;paint-order:stroke fill markers"
       id="path3"
       cx="147.74277"
       cy="218.10736"
       rx="5.6562819"
       ry="10.418739" /><path
       style="fill:none;fill-rule:evenodd;stroke:#8b4513;stroke-width:0.5;stroke-opacity:1"
       id="path4"
       d="m 144.85759,213.97467 c 0.0213,0.019 -0.0327,0.0461 -0.0427,0.0479 -0.11488,0.0205 -0.16283,-0.13278 -0.14878,-0.21884 0.0423,-0.25931 0.36207,-0.33266 0.57618,-0.25995 0.45214,0.15354 0.55812,0.71964 0.38141,1.11474 -0.31115,0.69569 -1.20592,0.83994 -1.83456,0.51316 -0.99079,-0.51505 -1.17837,-1.82104 -0.65517,-2.73561 0.76531,-1.33777 2.56508,-1.57354 3.81789,-0.80747 1.73676,1.06198 2.02548,3.43809 0.97005,5.08142 -1.40513,2.18782 -4.44011,2.53421 -6.52618,1.1429 -2.69099,-1.79476 -3.09977,-5.57115 -1.32604,-8.15218 2.23091,-3.24629 6.83122,-3.72216 9.95942,-1.51946 3.85372,2.71358 4.40138,8.22034 1.72315,11.9479"
       transform="matrix(-0.525912,0,0,1.0092843,224.71515,2.2012324)" /><ellipse
       style="fill:#8b4513;fill-opacity:1;stroke-width:1px;-inkscape-stroke:none;paint-order:stroke fill markers"
       id="ellipse4"
       cx="56.561882"
       cy="218.10736"
       rx="5.6562819"
       ry="10.418739" /></g><g
     id="g17"
     transform="matrix(1.5028528,0,0,1.5028528,-53.324814,-48.843909)"><path
       style="fill:url(#radialGradient14);fill-opacity:1;stroke:none;stroke-width:1.03837px;stroke-linecap:butt;stroke-linejoin:miter;stroke-opacity:1"
       d="m 102.86094,174.65013 c -1.11962,-0.28606 -2.31148,-0.12571 -3.474961,-0.16382 -1.139766,0.0205 -2.28852,-0.0432 -3.4202,0.0337 -0.754809,0.20477 -2.092084,0.29637 -2.289091,0.36383 -0.545556,0.083 -1.738906,0.23819 -2.612089,0.65429 -1.179839,0.56224 -1.463263,0.12289 -2.649651,0.69434 -0.383931,0.80457 -1.698968,0.73721 -2.000033,1.3962 -1.575529,0.59433 -0.374712,1.84884 0.815823,2.24184 1.355691,0.28246 2.214437,1.59687 0.253842,1.74235 -1.006877,0.33143 -1.899187,1.79673 -0.614823,2.21852 0.915546,0.56911 2.268186,0.99743 2.304386,1.87231 -0.214424,0.90009 0.38707,1.29122 0.761694,1.90332 -0.238846,0.85189 0.611145,1.59078 1.29972,2.09072 0.543012,-0.0713 0.580241,0.57796 1.282929,0.60129 1.02225,0.27461 1.929753,0.42983 2.796295,1.0035 0.394055,-0.10174 1.635648,0.21154 1.15753,0.15752 1.42688,-0.0286 2.864872,0.0429 4.283129,-0.0389 1.12371,-0.66144 1.93185,0.46559 2.17359,1.0137 0.771,0.21105 1.7606,0.31755 2.67516,0.30703 0.88207,0.1685 1.86554,-0.24763 2.09836,-0.76043 0.44252,0.62467 1.21861,2.29281 2.56975,1.70303 0.14315,-1.13925 0.75546,-1.987 1.62191,-2.82567 0.19912,-1.03465 1.44721,-1.65055 1.43515,-2.72928 0.57963,-0.60819 0.71687,-1.34261 1.40404,-1.96266 0.79163,-1.07282 0.11378,-2.19964 -0.97832,-2.89043 -0.32962,-0.55599 -1.67563,-0.69059 -0.5518,-1.10261 0.5867,-0.50376 1.24368,-0.34208 1.11436,-1.08601 -0.0628,-0.716 0.29196,-1.69157 -0.72847,-2.04279 -0.72514,-0.73596 -1.93563,-0.92898 -2.48784,-1.48563 -0.48324,-0.6658 -0.38345,-1.72052 -0.89474,-1.99259 -0.9353,-0.49769 -2.13607,-0.55562 -3.12234,-0.62396 z"
       id="path12" /><path
       style="fill:url(#radialGradient15);fill-opacity:1;stroke:none;stroke-width:0.60737px;stroke-linecap:butt;stroke-linejoin:miter;stroke-opacity:1"
       d="m 102.16551,184.21108 c -0.80712,-0.13577 -1.66632,-0.0597 -2.505051,-0.0778 -0.821641,0.01 -1.649763,-0.0205 -2.465576,0.016 -0.544132,0.0972 -1.508155,0.14066 -1.650176,0.17268 -0.393284,0.0395 -1.253554,0.11304 -1.88302,0.31053 -0.85053,0.26685 -1.054846,0.0583 -1.910099,0.32955 -0.27677,0.38185 -1.224763,0.34989 -1.441797,0.66265 -1.135778,0.28207 -0.270124,0.87748 0.588116,1.064 0.9773,0.13406 1.596359,0.75789 0.182992,0.82694 -0.725844,0.1573 -1.369099,0.85275 -0.443217,1.05293 0.660004,0.27012 1.635105,0.4734 1.6612,0.88863 -0.154574,0.4272 0.279035,0.61282 0.549096,0.90334 -0.172181,0.40432 0.440566,0.755 0.936951,0.99228 0.391449,-0.0339 0.418287,0.27431 0.924846,0.28538 0.736927,0.13034 1.391133,0.204 2.015812,0.47627 0.284069,-0.0483 1.179117,0.1004 0.834448,0.0747 1.028619,-0.0136 2.065248,0.0204 3.087655,-0.0185 0.81007,-0.31392 1.39264,0.22098 1.56691,0.48113 0.5558,0.10016 1.2692,0.15071 1.92848,0.14572 0.63589,0.08 1.34485,-0.11754 1.51268,-0.36092 0.31901,0.29648 0.87848,1.0882 1.85251,0.80828 0.10316,-0.5407 0.5446,-0.94305 1.16921,-1.3411 0.14355,-0.49105 1.04327,-0.78337 1.03458,-1.29534 0.41784,-0.28865 0.51678,-0.63723 1.01216,-0.93151 0.57066,-0.50917 0.082,-1.04397 -0.70526,-1.37183 -0.23762,-0.26388 -1.20795,-0.32776 -0.3978,-0.52331 0.42296,-0.23909 0.89655,-0.16236 0.80333,-0.51543 -0.0453,-0.33983 0.21048,-0.80284 -0.52514,-0.96954 -0.52275,-0.34929 -1.39536,-0.4409 -1.79346,-0.7051 -0.34835,-0.316 -0.27641,-0.81657 -0.64499,-0.9457 -0.67425,-0.23622 -1.53986,-0.26371 -2.25086,-0.29614 z"
       id="path15" /><path
       style="fill:url(#radialGradient16);fill-opacity:1;stroke:none;stroke-width:0.881156px;stroke-linecap:butt;stroke-linejoin:miter;stroke-opacity:1"
       d="m 103.01497,175.12421 c -1.50619,-0.15313 -3.109577,-0.0673 -4.674767,-0.0877 -1.533292,0.0109 -3.07868,-0.0231 -4.601095,0.018 -1.015423,0.10962 -2.814418,0.15865 -3.079448,0.19476 -0.733919,0.0445 -2.339298,0.1275 -3.513965,0.35024 -1.587202,0.30097 -1.968484,0.0658 -3.564498,0.37168 -0.51649,0.43068 -2.285571,0.39463 -2.690585,0.74738 -2.119513,0.31814 -0.504088,0.98968 1.097502,1.20005 1.823772,0.1512 2.979019,0.8548 0.341487,0.93268 -1.354522,0.17741 -2.554922,0.96178 -0.827102,1.18756 1.231656,0.30465 3.051323,0.53393 3.100021,1.00225 -0.288456,0.48182 0.520716,0.69118 1.024686,1.01884 -0.321313,0.45602 0.822155,0.85154 1.748475,1.11916 0.730496,-0.0382 0.780579,0.30938 1.725887,0.32187 1.375202,0.147 2.596038,0.23008 3.761772,0.53717 0.53011,-0.0545 2.20039,0.11323 1.557191,0.0843 1.919539,-0.0153 3.854028,0.023 5.761969,-0.0208 1.51171,-0.35406 2.59886,0.24923 2.92407,0.54264 1.03719,0.11297 2.3685,0.16998 3.59881,0.16435 1.18664,0.0902 2.50966,-0.13256 2.82286,-0.40706 0.59532,0.33439 1.63936,1.22734 3.45702,0.91163 0.19251,-0.60984 1.01631,-1.06364 2.18192,-1.51258 0.26787,-0.55384 1.94688,-0.88353 1.93066,-1.46097 0.77974,-0.32556 0.96438,-0.7187 1.88881,-1.05061 1.06494,-0.57428 0.15308,-1.17746 -1.3161,-1.54724 -0.44345,-0.29762 -2.25419,-0.36967 -0.74235,-0.59022 0.78929,-0.26966 1.67309,-0.18312 1.49913,-0.58134 -0.0845,-0.38328 0.39278,-0.90549 -0.97999,-1.0935 -0.97552,-0.39396 -2.60392,-0.49728 -3.34682,-0.79526 -0.65008,-0.3564 -0.51584,-0.92098 -1.20365,-1.06662 -1.25823,-0.26642 -2.87359,-0.29743 -4.20041,-0.33401 z"
       id="path16" /></g><!-- Fundo da Fogueira (troncos de madeira) --><!-- Chama da Fogueira --><g
     id="chama"
     transform="matrix(1.5028528,0,0,1.5028528,-53.324814,-48.843909)"><g
       id="g7"
       transform="translate(0.57944138,1.2752423)"><g
         id="chama-0"><!-- Caminho inicial da chama --><path
           id="path1-9"
           d="m 100,84.112338 c 20,35.296132 40.91419,103.783342 0,105.888382 -38.91772,0.71997 -20,-70.59225 0,-105.888382"
           fill="#ffcc00"
           opacity="0.8"
           style="stroke-width:0.939363"><animate
             attributeName="d"
             dur="4s"
             repeatCount="indefinite"
             values="m 100,84.112338 c 20,35.296132 40.91419,103.783342 0,105.888382 -38.91772,0.71997 -20,-70.59225 0,-105.888382;                        m 100,70 c 16.66667,36.66667 35.99093,109.2646 0.87631,111.71163 C 66.892902,184.07982 83.333333,106.66667 100,70;                        m 100,84.112338 c 20,35.296132 40.91419,103.783342 0,105.888382 -38.91772,0.71997 -20,-70.59225 0,-105.888382" /></path><path
           id="path2-3"
           d="m 100,70 c 16.66667,36.66667 35.99093,109.2646 0.87631,111.71163 C 66.892902,184.07982 83.333333,106.66667 100,70"
           fill="#ff6600"
           opacity="0.6"><animate
             attributeName="d"
             dur="4s"
             repeatCount="indefinite"
             values="m 100,70 c 16.66667,36.66667 35.99093,109.2646 0.87631,111.71163 C 66.892902,184.07982 83.333333,106.66667 100,70;                        m 100,56 c 13.33333,33.33333 34.19773,105.5191 0.83991,105.96756 C 68.313945,176.40483 86.666667,103.33333 100,56;                        m 100,70 c 16.66667,36.66667 35.99093,109.2646 0.87631,111.71163 C 66.892902,184.07982 83.333333,106.66667 100,70" /></path><path
           id="path3-6"
           d="m 100,56 c 13.33333,33.33333 34.19773,105.5191 0.83991,105.96756 C 68.313945,176.40483 86.666667,103.33333 100,56"
           fill="#ff3300"
           opacity="0.4"><animate
             attributeName="d"
             dur="4s"
             repeatCount="indefinite"
             values="m 100,56 c 13.33333,33.33333 34.19773,105.5191 0.83991,105.96756 C 68.313945,176.40483 86.666667,103.33333 100,56;                        m 100,42 c 10,30 30,95 0,95 C 70,193 90,120 100,42;                        m 100,56 c 13.33333,33.33333 34.19773,105.5191 0.83991,105.96756 C 68.313945,176.40483 86.666667,103.33333 100,56" /></path></g></g></g><!-- Animar a Chama --><animate
     xlink:href="#flame1"
     attributeName="d"
     dur="2s"
     repeatCount="indefinite"
     values="M100,70 Q130,120 100,170 Q70,120 100,70; M100,70 Q120,120 100,170 Q80,120 100,70" /><animate
     xlink:href="#flame2"
     attributeName="d"
     dur="2.5s"
     repeatCount="indefinite"
     values="M100,70 Q125,120 100,170 Q75,120 100,70; M100,70 Q130,125 100,175 Q70,125 100,70" /><animate
     xlink:href="#flame3"
     attributeName="d"
     dur="1.8s"
     repeatCount="indefinite"
     values="M100,70 Q120,115 100,160 Q80,115 100,70; M100,70 Q125,120 100,170 Q75,120 100,70" /><!-- Animar a Chama DogNew--><animate
     xlink:href="#flame4"
     attributeName="d"
     dur="2s"
     repeatCount="indefinite"
     values="m 100,90&#10;c 20,40 40.91419,117.61442 0,120 -38.91772,0.81592 -20,-80 0,-120" /><animate
     xlink:href="#flame5"
     attributeName="d"
     dur="2.5s"
     repeatCount="indefinite"
     values="m 100,90&#10;c 16.66667,36.66667 35.99093,109.2646 0.87631,111.71163&#10;C 66.892902,184.07982 83.333333,106.66667 100,90" /><animate
     xlink:href="#flame6"
     attributeName="d"
     dur="1.8s"
     repeatCount="indefinite"
     values="m 100,90&#10;c 13.33333,33.33333 34.19773,105.5191 0.83991,105.96756&#10;C 68.313945,176.40483 86.666667,103.33333 100,0" /></svg>
